<svg width="1032" height="260" viewBox="0 0 1032 260" xmlns="http://www.w3.org/2000/svg" xmlns:xlink="http://www.w3.org/1999/xlink">
    <defs>
        <path id="bcbyqt6v9a" d="M0 0h1032v260H0z"/>
        <path d="m805.418 0 .462 1.334 16.325 47.48 18.042-47.48.487-1.334h9.678v1.334h-8.55l-25.555 67.915 15.71.001.462 1.334 16.325 47.48 18.042-47.48.488-1.334h9.677v1.334h-8.55L842.907 138.5h-1.995l-26.22-67.916h-17.099L772.04 138.5h-1.995l-26.219-67.916h-17.1L701.173 138.5h-1.995l-26.22-67.916h-17.099L630.304 138.5h-1.995l-26.22-67.916h-17.098L559.436 138.5h-1.995l-26.219-67.916h-17.1L488.57 138.5h-1.995l-26.22-67.916h-17.099L417.701 138.5h-1.995l-26.219-67.916h-17.1L346.834 138.5h-1.994l-26.22-67.916H301.52L275.966 138.5h-1.995l-26.22-67.916h-17.099L205.098 138.5h-1.995l-26.219-67.916h-17.1L134.232 138.5h-1.995l-26.22-67.916H88.917L63.363 138.5h-1.995l-26.22-67.916H26.6V69.25l8.169-.001L8.55 1.334H0V0h25.874l.462 1.334 16.325 47.48 18.042-47.48L61.19 0h35.552l.461 1.334 16.326 47.48 18.042-47.48.487-1.334h35.551l.462 1.334 16.326 47.48 18.041-47.48.488-1.334h35.55l.463 1.334 16.325 47.48 18.042-47.48.487-1.334h35.551l.462 1.334 16.326 47.48 18.042-47.48L344.66 0h35.551l.462 1.334 16.325 47.48 18.042-47.48L415.53 0h35.55l.463 1.334 16.325 47.48 18.042-47.48.487-1.334h35.551l.462 1.334 16.326 47.48 18.041-47.48.488-1.334h35.551l.462 1.334 16.325 47.48 18.042-47.48.488-1.334h35.55l.463 1.334 16.325 47.48 18.042-47.48.487-1.334h35.551l.462 1.334 16.326 47.48 18.041-47.48.488-1.334h35.551zm8.894 69.249L788.094 1.334h-17.1L745.44 69.249l15.71.001.461 1.334 16.326 47.48 18.041-47.48.488-1.334 17.846-.001zM646.358 1.334H629.26l-25.555 67.915 15.71.001.462 1.334 16.326 47.48 18.041-47.48.488-1.334 17.846-.001-26.219-67.915zm-212.602 0h-17.1l-25.555 67.915 15.71.001.462 1.334 16.326 47.48 18.041-47.48.488-1.334 17.846-.001-26.218-67.915zm-212.603 0h-17.1L178.5 69.249l15.71.001.461 1.334 16.326 47.48 18.041-47.48.488-1.334 17.846-.001-26.218-67.915zm-141.736 0h-17.1L36.764 69.249l15.71.001.462 1.334 16.325 47.48 18.042-47.48.488-1.334 17.846-.001L79.417 1.334zm70.868 0h-17.1l-25.554 67.915 15.71.001.462 1.334 16.325 47.48 18.042-47.48.487-1.334 17.847-.001-26.219-67.915zm566.941 0h-17.1l-25.554 67.915 15.71.001.462 1.334 16.325 47.48 18.042-47.48.487-1.334 17.847-.001-26.219-67.915zm-354.338 0h-17.1l-25.554 67.915 15.71.001.461 1.334 16.326 47.48 18.042-47.48.487-1.334 17.847-.001-26.22-67.915zm-70.868 0h-17.1l-25.554 67.915 15.71.001.462 1.334 16.325 47.48 18.042-47.48.487-1.334 17.847-.001L292.02 1.334zm283.47 0h-17.099l-25.554 67.915 15.71.001.461 1.334 16.326 47.48 18.042-47.48.487-1.334 17.846-.001-26.218-67.915zm-70.867 0h-17.1L461.97 69.249l15.71.001.462 1.334 16.325 47.48 18.042-47.48.487-1.334 17.847-.001-26.219-67.915zM805.418 138.5l.462 1.334 16.325 47.48 18.042-47.48.487-1.334h9.678v1.334h-8.55l-25.555 67.915 15.71.001.462 1.334 16.325 47.48 18.042-47.48.488-1.334h9.677v1.334h-8.55L842.907 277h-1.995l-26.22-67.916h-17.099L772.04 277h-1.995l-26.219-67.916h-17.1L701.173 277h-1.995l-26.22-67.916h-17.099L630.304 277h-1.995l-26.22-67.916h-17.098L559.436 277h-1.995l-26.219-67.916h-17.1L488.57 277h-1.995l-26.22-67.916h-17.099L417.701 277h-1.995l-26.219-67.916h-17.1L346.834 277h-1.994l-26.22-67.916H301.52L275.966 277h-1.995l-26.22-67.916h-17.099L205.098 277h-1.995l-26.219-67.916h-17.1L134.232 277h-1.995l-26.22-67.916H88.917L63.363 277h-1.995l-26.22-67.916H26.6v-1.334l8.169-.001L8.55 139.834H0V138.5h25.874l.462 1.334 16.325 47.48 18.042-47.48.487-1.334h35.552l.461 1.334 16.326 47.48 18.042-47.48.487-1.334h35.551l.462 1.334 16.326 47.48 18.041-47.48.488-1.334h35.55l.463 1.334 16.325 47.48 18.042-47.48.487-1.334h35.551l.462 1.334 16.326 47.48 18.042-47.48.487-1.334h35.551l.462 1.334 16.325 47.48 18.042-47.48.488-1.334h35.55l.463 1.334 16.325 47.48 18.042-47.48.487-1.334h35.551l.462 1.334 16.326 47.48 18.041-47.48.488-1.334h35.551l.462 1.334 16.325 47.48 18.042-47.48.488-1.334h35.55l.463 1.334 16.325 47.48 18.042-47.48.487-1.334h35.551l.462 1.334 16.326 47.48 18.041-47.48.488-1.334h35.551zm8.894 69.249-26.218-67.915h-17.1l-25.554 67.915 15.71.001.461 1.334 16.326 47.48 18.041-47.48.488-1.334 17.846-.001zm-167.954-67.915H629.26l-25.555 67.915 15.71.001.462 1.334 16.326 47.48 18.041-47.48.488-1.334 17.846-.001-26.219-67.915zm-212.602 0h-17.1l-25.555 67.915 15.71.001.462 1.334 16.326 47.48 18.041-47.48.488-1.334 17.846-.001-26.218-67.915zm-212.603 0h-17.1L178.5 207.749l15.71.001.461 1.334 16.326 47.48 18.041-47.48.488-1.334 17.846-.001-26.218-67.915zm-141.736 0h-17.1l-25.554 67.915 15.71.001.462 1.334 16.325 47.48 18.042-47.48.488-1.334 17.846-.001-26.219-67.915zm70.868 0h-17.1l-25.554 67.915 15.71.001.462 1.334 16.325 47.48 18.042-47.48.487-1.334 17.847-.001-26.219-67.915zm566.941 0h-17.1l-25.554 67.915 15.71.001.462 1.334 16.325 47.48 18.042-47.48.487-1.334 17.847-.001-26.219-67.915zm-354.338 0h-17.1l-25.554 67.915 15.71.001.461 1.334 16.326 47.48 18.042-47.48.487-1.334 17.847-.001-26.22-67.915zm-70.868 0h-17.1l-25.554 67.915 15.71.001.462 1.334 16.325 47.48 18.042-47.48.487-1.334 17.847-.001-26.219-67.915zm283.47 0h-17.099l-25.554 67.915 15.71.001.461 1.334 16.326 47.48 18.042-47.48.487-1.334 17.846-.001-26.218-67.915zm-70.867 0h-17.1l-25.554 67.915 15.71.001.462 1.334 16.325 47.48 18.042-47.48.487-1.334 17.847-.001-26.219-67.915zM167.61 277l.462 1.334 16.326 47.48 18.041-47.48.488-1.334h9.677v1.334h-8.55L178.5 346.25h-1.995l-26.219-67.916h-17.1l-25.554 67.916h-1.995l-26.219-67.916h-17.1L36.765 346.25h-1.995l-26.22-67.916H0V277h25.874l.462 1.334 16.325 47.48 18.042-47.48.487-1.334h35.552l.461 1.334 16.326 47.48 18.042-47.48.487-1.334h35.551zm141.735 0 .462 1.334 16.326 47.48 18.042-47.48.487-1.334h9.677v1.334h-8.55l-25.554 67.916h-1.995l-26.219-67.916h-17.1l-25.553 67.916h-1.995l-26.22-67.916h-8.55V277h25.875l.462 1.334 16.325 47.48 18.042-47.48.487-1.334h35.551zm81.758 69.25 25.554-67.916h8.55V277h-9.677l-.488 1.334L397 325.814l-16.325-47.48-.462-1.334h-25.874v1.334h8.55l26.219 67.916h1.995zm70.868 0 25.554-67.916h8.55V277h-9.678l-.487 1.334-18.042 47.48-16.325-47.48-.462-1.334h-25.874v1.334h8.55l26.219 67.916h1.995zM592.815 277l.462 1.334 16.325 47.48 18.042-47.48.488-1.334h9.677v1.334h-8.55l-25.554 67.916h-1.995l-26.22-67.916h-17.099l-25.554 67.916h-1.995l-26.219-67.916h-8.55V277h25.874l.462 1.334 16.326 47.48 18.041-47.48.488-1.334h35.551zm81.758 69.25 25.554-67.916h8.55V277h-9.678l-.487 1.334-18.042 47.48-16.325-47.48-.462-1.334h-25.874v1.334h8.55l26.219 67.916h1.995zm70.867 0 25.554-67.916h8.55V277h-9.677l-.488 1.334-18.041 47.48-16.326-47.48-.462-1.334h-25.874v1.334h8.55l26.22 67.916h1.994zm70.868 0 25.554-67.916h8.55V277h-9.678l-.487 1.334-18.042 47.48-16.325-47.48-.462-1.334h-25.874v1.334h8.55l26.219 67.916h1.995zm-55.159 0 .462 1.334 16.326 47.48 18.041-47.48.488-1.334h35.551l.462 1.334 16.325 47.48 18.042-47.48.488-1.334h9.677v1.334h-8.55l-25.555 67.915 7.506.001v1.334h-8.55l-25.554 67.916h-1.995l-26.22-67.916h-17.099L745.44 484.75h-1.995l-26.219-67.916h-17.1l-25.553 67.916h-1.995l-26.22-67.916H629.26l-25.554 67.916h-1.995l-26.22-67.916h-17.099l-25.554 67.916h-1.995l-26.219-67.916h-17.1L461.97 484.75h-1.995l-26.22-67.916h-17.099l-25.554 67.916h-1.995l-26.22-67.916h-17.099l-25.554 67.916h-1.995l-26.219-67.916h-17.1l-25.553 67.916h-1.995l-26.22-67.916h-17.099L178.5 484.75h-1.995l-26.219-67.916h-17.1l-25.554 67.916h-1.995l-26.219-67.916h-17.1L36.765 484.75h-1.995l-26.22-67.916H0V415.5h25.874l.462 1.334 16.325 47.48 18.042-47.48.487-1.334.177-.001-26.218-67.915h-8.55v-1.334h25.874l.462 1.334 16.325 47.48 18.042-47.48.488-1.334h35.55l.463 1.334 16.325 47.48 18.042-47.48.487-1.334h35.551l.462 1.334 16.326 47.48 18.041-47.48.488-1.334h35.551l.462 1.334 16.325 47.48 18.042-47.48.487-1.334h35.552l.461 1.334 16.326 47.48 18.042-47.48.487-1.334h35.551l.462 1.334 16.326 47.48 18.041-47.48.488-1.334h35.55l.463 1.334 16.325 47.48 18.042-47.48.487-1.334h35.552l.461 1.334 16.326 47.48 18.042-47.48.487-1.334h35.551l.462 1.334 16.326 47.48 18.041-47.48.488-1.334h35.55l.463 1.334 16.325 47.48 18.042-47.48.487-1.334h35.551zm44.269 69.25.462 1.334 16.325 47.48 18.042-47.48.487-1.334.177-.001-26.218-67.915h-17.1l-25.554 67.915 33.379.001zM602.09 347.584h-17.1l-25.554 67.915 33.379.001.462 1.334 16.325 47.48 18.042-47.48.488-1.334.177-.001-26.22-67.915zm-141.735 0h-17.1l-25.554 67.915 33.379.001.462 1.334 16.325 47.48 18.042-47.48.487-1.334.177-.001-26.218-67.915zm-141.736 0H301.52l-25.555 67.915 33.38.001.461 1.334 16.326 47.48 18.042-47.48.487-1.334.177-.001-26.219-67.915zm70.868 0h-17.1l-25.554 67.915 33.38.001.461 1.334 16.325 47.48 18.042-47.48.488-1.334.177-.001-26.219-67.915zm-141.735 0h-17.1l-25.554 67.915 33.379.001.462 1.334 16.325 47.48 18.042-47.48.487-1.334.177-.001-26.218-67.915zm-70.868 0h-17.1l-25.554 67.915 33.38.001.461 1.334 16.326 47.48 18.041-47.48.488-1.334.177-.001-26.219-67.915zm-70.868 0H88.917l-25.555 67.915 33.38.001.461 1.334 16.326 47.48 18.042-47.48.487-1.334.177-.001-26.219-67.915zm620.71 0-25.555 67.915 33.38.001.461 1.334 16.326 47.48 18.041-47.48.488-1.334.177-.001-26.219-67.915h-17.1zm-53.768 0h-17.1l-25.555 67.915 33.38.001.462 1.334 16.325 47.48 18.042-47.48.487-1.334.177-.001-26.218-67.915zm-141.736 0h-17.1l-25.554 67.915 33.38.001.461 1.334 16.326 47.48 18.041-47.48.488-1.334.177-.001-26.219-67.915zM63.362 554l25.555-67.916h8.55v-1.334H87.79l-.488 1.334-18.042 47.48-16.325-47.48-.462-1.334H26.599v1.334h8.55L61.368 554h1.995zm130.846-69.25.462 1.334 16.326 47.48 18.041-47.48.488-1.334h9.677v1.334h-8.55L205.098 554h-1.995l-26.219-67.916h-17.1L134.232 554h-1.995l-26.22-67.916h-8.55v-1.334h25.875l.462 1.334 16.325 47.48 18.042-47.48.487-1.334h35.551zM275.966 554l25.554-67.916h8.55v-1.334h-9.678l-.487 1.334-18.042 47.48-16.325-47.48-.462-1.334h-25.874v1.334h8.55L273.97 554h1.995zm130.845-69.25.462 1.334 16.326 47.48 18.041-47.48.488-1.334h9.677v1.334h-8.55L417.701 554h-1.995l-26.219-67.916h-17.1L346.834 554h-1.994l-26.22-67.916h-8.55v-1.334h25.875l.461 1.334 16.326 47.48 18.042-47.48.487-1.334h35.551zM488.57 554l25.554-67.916h8.55v-1.334h-9.678l-.487 1.334-18.042 47.48-16.325-47.48-.462-1.334h-25.874v1.334h8.55L486.574 554h1.995zm70.867 0 25.555-67.916h8.55v-1.334h-9.678l-.487 1.334-18.042 47.48-16.326-47.48-.461-1.334h-25.874v1.334h8.55L557.44 554h1.995zm70.868 0 25.554-67.916h8.55v-1.334h-9.677l-.488 1.334-18.041 47.48-16.326-47.48-.462-1.334H593.54v1.334h8.55L628.31 554h1.994zm70.868 0 25.554-67.916h8.55v-1.334h-9.678l-.487 1.334-18.042 47.48-16.325-47.48-.462-1.334h-25.874v1.334h8.55L699.177 554h1.995zm130.845-69.25.462 1.334 16.325 47.48 18.042-47.48.488-1.334h9.677v1.334h-8.55L842.907 554h-1.995l-26.22-67.916h-17.099L772.04 554h-1.995l-26.219-67.916h-8.55v-1.334h25.874l.462 1.334 16.326 47.48 18.041-47.48.488-1.334h35.551z" id="oc6931tp5c"/>
        <path d="m805.418 0 .462 1.334 16.325 47.48 18.042-47.48.487-1.334h9.678v1.334h-8.55l-25.555 67.915 15.71.001.462 1.334 16.325 47.48 18.042-47.48.488-1.334h9.677v1.334h-8.55L842.907 138.5h-1.995l-26.22-67.916h-17.099L772.04 138.5h-1.995l-26.219-67.916h-17.1L701.173 138.5h-1.995l-26.22-67.916h-17.099L630.304 138.5h-1.995l-26.22-67.916h-17.098L559.436 138.5h-1.995l-26.219-67.916h-17.1L488.57 138.5h-1.995l-26.22-67.916h-17.099L417.701 138.5h-1.995l-26.219-67.916h-17.1L346.834 138.5h-1.994l-26.22-67.916H301.52L275.966 138.5h-1.995l-26.22-67.916h-17.099L205.098 138.5h-1.995l-26.219-67.916h-17.1L134.232 138.5h-1.995l-26.22-67.916H88.917L63.363 138.5h-1.995l-26.22-67.916H26.6V69.25l8.169-.001L8.55 1.334H0V0h25.874l.462 1.334 16.325 47.48 18.042-47.48L61.19 0h35.552l.461 1.334 16.326 47.48 18.042-47.48.487-1.334h35.551l.462 1.334 16.326 47.48 18.041-47.48.488-1.334h35.55l.463 1.334 16.325 47.48 18.042-47.48.487-1.334h35.551l.462 1.334 16.326 47.48 18.042-47.48L344.66 0h35.551l.462 1.334 16.325 47.48 18.042-47.48L415.53 0h35.55l.463 1.334 16.325 47.48 18.042-47.48.487-1.334h35.551l.462 1.334 16.326 47.48 18.041-47.48.488-1.334h35.551l.462 1.334 16.325 47.48 18.042-47.48.488-1.334h35.55l.463 1.334 16.325 47.48 18.042-47.48.487-1.334h35.551l.462 1.334 16.326 47.48 18.041-47.48.488-1.334h35.551zm8.894 69.249L788.094 1.334h-17.1L745.44 69.249l15.71.001.461 1.334 16.326 47.48 18.041-47.48.488-1.334 17.846-.001zM646.358 1.334H629.26l-25.555 67.915 15.71.001.462 1.334 16.326 47.48 18.041-47.48.488-1.334 17.846-.001-26.219-67.915zm-212.602 0h-17.1l-25.555 67.915 15.71.001.462 1.334 16.326 47.48 18.041-47.48.488-1.334 17.846-.001-26.218-67.915zm-212.603 0h-17.1L178.5 69.249l15.71.001.461 1.334 16.326 47.48 18.041-47.48.488-1.334 17.846-.001-26.218-67.915zm-141.736 0h-17.1L36.764 69.249l15.71.001.462 1.334 16.325 47.48 18.042-47.48.488-1.334 17.846-.001L79.417 1.334zm70.868 0h-17.1l-25.554 67.915 15.71.001.462 1.334 16.325 47.48 18.042-47.48.487-1.334 17.847-.001-26.219-67.915zm566.941 0h-17.1l-25.554 67.915 15.71.001.462 1.334 16.325 47.48 18.042-47.48.487-1.334 17.847-.001-26.219-67.915zm-354.338 0h-17.1l-25.554 67.915 15.71.001.461 1.334 16.326 47.48 18.042-47.48.487-1.334 17.847-.001-26.22-67.915zm-70.868 0h-17.1l-25.554 67.915 15.71.001.462 1.334 16.325 47.48 18.042-47.48.487-1.334 17.847-.001L292.02 1.334zm283.47 0h-17.099l-25.554 67.915 15.71.001.461 1.334 16.326 47.48 18.042-47.48.487-1.334 17.846-.001-26.218-67.915zm-70.867 0h-17.1L461.97 69.249l15.71.001.462 1.334 16.325 47.48 18.042-47.48.487-1.334 17.847-.001-26.219-67.915zM805.418 138.5l.462 1.334 16.325 47.48 18.042-47.48.487-1.334h9.678v1.334h-8.55l-25.555 67.915 15.71.001.462 1.334 16.325 47.48 18.042-47.48.488-1.334h9.677v1.334h-8.55L842.907 277h-1.995l-26.22-67.916h-17.099L772.04 277h-1.995l-26.219-67.916h-17.1L701.173 277h-1.995l-26.22-67.916h-17.099L630.304 277h-1.995l-26.22-67.916h-17.098L559.436 277h-1.995l-26.219-67.916h-17.1L488.57 277h-1.995l-26.22-67.916h-17.099L417.701 277h-1.995l-26.219-67.916h-17.1L346.834 277h-1.994l-26.22-67.916H301.52L275.966 277h-1.995l-26.22-67.916h-17.099L205.098 277h-1.995l-26.219-67.916h-17.1L134.232 277h-1.995l-26.22-67.916H88.917L63.363 277h-1.995l-26.22-67.916H26.6v-1.334l8.169-.001L8.55 139.834H0V138.5h25.874l.462 1.334 16.325 47.48 18.042-47.48.487-1.334h35.552l.461 1.334 16.326 47.48 18.042-47.48.487-1.334h35.551l.462 1.334 16.326 47.48 18.041-47.48.488-1.334h35.55l.463 1.334 16.325 47.48 18.042-47.48.487-1.334h35.551l.462 1.334 16.326 47.48 18.042-47.48.487-1.334h35.551l.462 1.334 16.325 47.48 18.042-47.48.488-1.334h35.55l.463 1.334 16.325 47.48 18.042-47.48.487-1.334h35.551l.462 1.334 16.326 47.48 18.041-47.48.488-1.334h35.551l.462 1.334 16.325 47.48 18.042-47.48.488-1.334h35.55l.463 1.334 16.325 47.48 18.042-47.48.487-1.334h35.551l.462 1.334 16.326 47.48 18.041-47.48.488-1.334h35.551zm8.894 69.249-26.218-67.915h-17.1l-25.554 67.915 15.71.001.461 1.334 16.326 47.48 18.041-47.48.488-1.334 17.846-.001zm-167.954-67.915H629.26l-25.555 67.915 15.71.001.462 1.334 16.326 47.48 18.041-47.48.488-1.334 17.846-.001-26.219-67.915zm-212.602 0h-17.1l-25.555 67.915 15.71.001.462 1.334 16.326 47.48 18.041-47.48.488-1.334 17.846-.001-26.218-67.915zm-212.603 0h-17.1L178.5 207.749l15.71.001.461 1.334 16.326 47.48 18.041-47.48.488-1.334 17.846-.001-26.218-67.915zm-141.736 0h-17.1l-25.554 67.915 15.71.001.462 1.334 16.325 47.48 18.042-47.48.488-1.334 17.846-.001-26.219-67.915zm70.868 0h-17.1l-25.554 67.915 15.71.001.462 1.334 16.325 47.48 18.042-47.48.487-1.334 17.847-.001-26.219-67.915zm566.941 0h-17.1l-25.554 67.915 15.71.001.462 1.334 16.325 47.48 18.042-47.48.487-1.334 17.847-.001-26.219-67.915zm-354.338 0h-17.1l-25.554 67.915 15.71.001.461 1.334 16.326 47.48 18.042-47.48.487-1.334 17.847-.001-26.22-67.915zm-70.868 0h-17.1l-25.554 67.915 15.71.001.462 1.334 16.325 47.48 18.042-47.48.487-1.334 17.847-.001-26.219-67.915zm283.47 0h-17.099l-25.554 67.915 15.71.001.461 1.334 16.326 47.48 18.042-47.48.487-1.334 17.846-.001-26.218-67.915zm-70.867 0h-17.1l-25.554 67.915 15.71.001.462 1.334 16.325 47.48 18.042-47.48.487-1.334 17.847-.001-26.219-67.915zM167.61 277l.462 1.334 16.326 47.48 18.041-47.48.488-1.334h9.677v1.334h-8.55L178.5 346.25h-1.995l-26.219-67.916h-17.1l-25.554 67.916h-1.995l-26.219-67.916h-17.1L36.765 346.25h-1.995l-26.22-67.916H0V277h25.874l.462 1.334 16.325 47.48 18.042-47.48.487-1.334h35.552l.461 1.334 16.326 47.48 18.042-47.48.487-1.334h35.551zm141.735 0 .462 1.334 16.326 47.48 18.042-47.48.487-1.334h9.677v1.334h-8.55l-25.554 67.916h-1.995l-26.219-67.916h-17.1l-25.553 67.916h-1.995l-26.22-67.916h-8.55V277h25.875l.462 1.334 16.325 47.48 18.042-47.48.487-1.334h35.551zm81.758 69.25 25.554-67.916h8.55V277h-9.677l-.488 1.334L397 325.814l-16.325-47.48-.462-1.334h-25.874v1.334h8.55l26.219 67.916h1.995zm70.868 0 25.554-67.916h8.55V277h-9.678l-.487 1.334-18.042 47.48-16.325-47.48-.462-1.334h-25.874v1.334h8.55l26.219 67.916h1.995zM592.815 277l.462 1.334 16.325 47.48 18.042-47.48.488-1.334h9.677v1.334h-8.55l-25.554 67.916h-1.995l-26.22-67.916h-17.099l-25.554 67.916h-1.995l-26.219-67.916h-8.55V277h25.874l.462 1.334 16.326 47.48 18.041-47.48.488-1.334h35.551zm81.758 69.25 25.554-67.916h8.55V277h-9.678l-.487 1.334-18.042 47.48-16.325-47.48-.462-1.334h-25.874v1.334h8.55l26.219 67.916h1.995zm70.867 0 25.554-67.916h8.55V277h-9.677l-.488 1.334-18.041 47.48-16.326-47.48-.462-1.334h-25.874v1.334h8.55l26.22 67.916h1.994zm70.868 0 25.554-67.916h8.55V277h-9.678l-.487 1.334-18.042 47.48-16.325-47.48-.462-1.334h-25.874v1.334h8.55l26.219 67.916h1.995zm-55.159 0 .462 1.334 16.326 47.48 18.041-47.48.488-1.334h35.551l.462 1.334 16.325 47.48 18.042-47.48.488-1.334h9.677v1.334h-8.55l-25.555 67.915 7.506.001v1.334h-8.55l-25.554 67.916h-1.995l-26.22-67.916h-17.099L745.44 484.75h-1.995l-26.219-67.916h-17.1l-25.553 67.916h-1.995l-26.22-67.916H629.26l-25.554 67.916h-1.995l-26.22-67.916h-17.099l-25.554 67.916h-1.995l-26.219-67.916h-17.1L461.97 484.75h-1.995l-26.22-67.916h-17.099l-25.554 67.916h-1.995l-26.22-67.916h-17.099l-25.554 67.916h-1.995l-26.219-67.916h-17.1l-25.553 67.916h-1.995l-26.22-67.916h-17.099L178.5 484.75h-1.995l-26.219-67.916h-17.1l-25.554 67.916h-1.995l-26.219-67.916h-17.1L36.765 484.75h-1.995l-26.22-67.916H0V415.5h25.874l.462 1.334 16.325 47.48 18.042-47.48.487-1.334.177-.001-26.218-67.915h-8.55v-1.334h25.874l.462 1.334 16.325 47.48 18.042-47.48.488-1.334h35.55l.463 1.334 16.325 47.48 18.042-47.48.487-1.334h35.551l.462 1.334 16.326 47.48 18.041-47.48.488-1.334h35.551l.462 1.334 16.325 47.48 18.042-47.48.487-1.334h35.552l.461 1.334 16.326 47.48 18.042-47.48.487-1.334h35.551l.462 1.334 16.326 47.48 18.041-47.48.488-1.334h35.55l.463 1.334 16.325 47.48 18.042-47.48.487-1.334h35.552l.461 1.334 16.326 47.48 18.042-47.48.487-1.334h35.551l.462 1.334 16.326 47.48 18.041-47.48.488-1.334h35.55l.463 1.334 16.325 47.48 18.042-47.48.487-1.334h35.551zm44.269 69.25.462 1.334 16.325 47.48 18.042-47.48.487-1.334.177-.001-26.218-67.915h-17.1l-25.554 67.915 33.379.001zM602.09 347.584h-17.1l-25.554 67.915 33.379.001.462 1.334 16.325 47.48 18.042-47.48.488-1.334.177-.001-26.22-67.915zm-141.735 0h-17.1l-25.554 67.915 33.379.001.462 1.334 16.325 47.48 18.042-47.48.487-1.334.177-.001-26.218-67.915zm-141.736 0H301.52l-25.555 67.915 33.38.001.461 1.334 16.326 47.48 18.042-47.48.487-1.334.177-.001-26.219-67.915zm70.868 0h-17.1l-25.554 67.915 33.38.001.461 1.334 16.325 47.48 18.042-47.48.488-1.334.177-.001-26.219-67.915zm-141.735 0h-17.1l-25.554 67.915 33.379.001.462 1.334 16.325 47.48 18.042-47.48.487-1.334.177-.001-26.218-67.915zm-70.868 0h-17.1l-25.554 67.915 33.38.001.461 1.334 16.326 47.48 18.041-47.48.488-1.334.177-.001-26.219-67.915zm-70.868 0H88.917l-25.555 67.915 33.38.001.461 1.334 16.326 47.48 18.042-47.48.487-1.334.177-.001-26.219-67.915zm620.71 0-25.555 67.915 33.38.001.461 1.334 16.326 47.48 18.041-47.48.488-1.334.177-.001-26.219-67.915h-17.1zm-53.768 0h-17.1l-25.555 67.915 33.38.001.462 1.334 16.325 47.48 18.042-47.48.487-1.334.177-.001-26.218-67.915zm-141.736 0h-17.1l-25.554 67.915 33.38.001.461 1.334 16.326 47.48 18.041-47.48.488-1.334.177-.001-26.219-67.915zM63.362 554l25.555-67.916h8.55v-1.334H87.79l-.488 1.334-18.042 47.48-16.325-47.48-.462-1.334H26.599v1.334h8.55L61.368 554h1.995zm130.846-69.25.462 1.334 16.326 47.48 18.041-47.48.488-1.334h9.677v1.334h-8.55L205.098 554h-1.995l-26.219-67.916h-17.1L134.232 554h-1.995l-26.22-67.916h-8.55v-1.334h25.875l.462 1.334 16.325 47.48 18.042-47.48.487-1.334h35.551zM275.966 554l25.554-67.916h8.55v-1.334h-9.678l-.487 1.334-18.042 47.48-16.325-47.48-.462-1.334h-25.874v1.334h8.55L273.97 554h1.995zm130.845-69.25.462 1.334 16.326 47.48 18.041-47.48.488-1.334h9.677v1.334h-8.55L417.701 554h-1.995l-26.219-67.916h-17.1L346.834 554h-1.994l-26.22-67.916h-8.55v-1.334h25.875l.461 1.334 16.326 47.48 18.042-47.48.487-1.334h35.551zM488.57 554l25.554-67.916h8.55v-1.334h-9.678l-.487 1.334-18.042 47.48-16.325-47.48-.462-1.334h-25.874v1.334h8.55L486.574 554h1.995zm70.867 0 25.555-67.916h8.55v-1.334h-9.678l-.487 1.334-18.042 47.48-16.326-47.48-.461-1.334h-25.874v1.334h8.55L557.44 554h1.995zm70.868 0 25.554-67.916h8.55v-1.334h-9.677l-.488 1.334-18.041 47.48-16.326-47.48-.462-1.334H593.54v1.334h8.55L628.31 554h1.994zm70.868 0 25.554-67.916h8.55v-1.334h-9.678l-.487 1.334-18.042 47.48-16.325-47.48-.462-1.334h-25.874v1.334h8.55L699.177 554h1.995zm130.845-69.25.462 1.334 16.325 47.48 18.042-47.48.488-1.334h9.677v1.334h-8.55L842.907 554h-1.995l-26.22-67.916h-17.099L772.04 554h-1.995l-26.219-67.916h-8.55v-1.334h25.874l.462 1.334 16.326 47.48 18.041-47.48.488-1.334h35.551z" id="9egku1217e"/>
    </defs>
    <g fill="none" fill-rule="evenodd">
        <mask id="7glud6fnlb" fill="#fff">
            <use xlink:href="#bcbyqt6v9a"/>
        </mask>
        <use fill="#131922" xlink:href="#bcbyqt6v9a"/>
        <g opacity=".05" mask="url(#7glud6fnlb)">
            <g transform="translate(-41.741 -17)">
                <mask id="ku4r3k1hxd" fill="#fff">
                    <use xlink:href="#oc6931tp5c"/>
                </mask>
                <use fill="#FFF" fill-rule="nonzero" xlink:href="#oc6931tp5c"/>
                <path fill="#FFF" mask="url(#ku4r3k1hxd)" d="M0 0h875.483v554H0z"/>
            </g>
        </g>
        <g opacity=".05" mask="url(#7glud6fnlb)">
            <g transform="translate(808.259 -17)">
                <mask id="vc9103c0jf" fill="#fff">
                    <use xlink:href="#9egku1217e"/>
                </mask>
                <use fill="#FFF" fill-rule="nonzero" xlink:href="#9egku1217e"/>
                <path fill="#FFF" mask="url(#vc9103c0jf)" d="M0 0h875.483v554H0z"/>
            </g>
        </g>
    </g>
</svg>
