<?xml version="1.0" encoding="utf-8"?><svg width="339" height="321" viewBox="0 0 339 321" xmlns="http://www.w3.org/2000/svg" xmlns:xlink="http://www.w3.org/1999/xlink"><svg width="48" height="26" viewBox="-4 -4 48 26" id="icon_answer_40x18_gray" x="254" y="192" xmlns="http://www.w3.org/2000/svg"><defs><path id="aaa" d="M35 11h-1V9h-2v1h-5V4h1v2h3V4h1v1h2V4h1v7zm0 3h-7v-3h1v2h6v1zm-9-7h-1v2h-1V4h1v2h1v1zm-1 7h-7v-4h1v1h5v-1h1v4zM17 4h5v1h-4v3h5v1h-6V4zm21-4H14a2 2 0 0 0-2 2v14a2 2 0 0 0 2 2h24a2 2 0 0 0 2-2V2a2 2 0 0 0-2-2zm-6 8h2V6h-2v2zm-4 1h3V7h-3v2zm-9 4h5v-1h-5v1z"/></defs><g fill="none" fill-rule="evenodd"><use fill="#A3A9B3" xlink:href="#aaa"/><path stroke="#000" stroke-opacity=".1" d="M33.5 9.5h-1v1h-6v-7h2v2h2v-2h2v1h1v-1h2v8h-2v-2zm-4 3h6v2h-8v-4h2v2zm-5-3.5.5-.5h-.5v-.75 1-.25zm1-1.5v2h-2v-6h2v2h1v2h-1zm-6 3h4v-1h2v5h-8v-5h2v1zm-1-5v2h5v2h-7v-6h6v2h-4zM38 .5A1.5 1.5 0 0 1 39.5 2v14a1.5 1.5 0 0 1-1.5 1.5H14a1.5 1.5 0 0 1-1.5-1.5V2A1.5 1.5 0 0 1 14 .5h24zm-5.5 6V6l-.5.5h.5zm1 0h.5l-.5-.5v.5zm0 1V8l.5-.5h-.5zm-1 0H32l.5.5v-.5zm0 0v-1h1v1h-1zm-4 0V7l-.5.5h.5zm2 0h.5l-.5-.5v.5zm0 1V9l.5-.5h-.5zm-2 0H28l.5.5v-.5zm0 0v-1h2v1h-2zm-9 4V12l-.5.5h.5zm0 0H19l.5.5v-.5zm4 0v.5l.5-.5h-.5zm0 0h-4H24l-.5-.5v.5z"/><path fill="#C2C2C2" d="M1 8V1H0v8h8V8H1z"/></g></svg><svg width="24" height="23" viewBox="-4 -4 24 23" id="icon_bell_16x15_black" x="314" y="25" xmlns="http://www.w3.org/2000/svg"><path fill-rule="evenodd" d="M8 0c3.263 0 5.916 2.692 5.916 6v4.382L15.207 13H10.92c-.468 1.186-1.615 2-2.91 2-1.295 0-2.442-.814-2.91-2H.793l1.29-2.618V6c0-3.308 2.654-6 5.917-6zm1.81 13H6.208c.387.605 1.058 1 1.802 1s1.415-.395 1.802-1zM8 1C5.282 1 3.07 3.243 3.07 6v4.618L2.389 12H13.61l-.681-1.382V6c0-2.757-2.212-5-4.93-5zm6.487.069A8.129 8.129 0 0 1 16 5.767l-.986.005a7.124 7.124 0 0 0-1.326-4.118l.8-.585zm-12.974 0 .799.585A7.124 7.124 0 0 0 .986 5.772L0 5.767A8.129 8.129 0 0 1 1.513 1.07z"/></svg><svg width="24" height="23" viewBox="-4 -4 24 23" id="icon_bell_16x15_white" x="314" y="48" xmlns="http://www.w3.org/2000/svg"><path fill="#FFF" fill-rule="evenodd" d="M8 0c3.263 0 5.916 2.692 5.916 6v4.382L15.207 13H10.92c-.468 1.186-1.615 2-2.91 2-1.295 0-2.442-.814-2.91-2H.793l1.29-2.618V6c0-3.308 2.654-6 5.917-6zm1.81 13H6.208c.387.605 1.058 1 1.802 1s1.415-.395 1.802-1zM8 1C5.282 1 3.07 3.243 3.07 6v4.618L2.389 12H13.61l-.681-1.382V6c0-2.757-2.212-5-4.93-5zm6.487.069A8.129 8.129 0 0 1 16 5.767l-.986.005a7.124 7.124 0 0 0-1.326-4.118l.8-.585zm-12.974 0 .799.585A7.124 7.124 0 0 0 .986 5.772L0 5.767A8.129 8.129 0 0 1 1.513 1.07z"/></svg><svg width="30" height="30" fill="none" viewBox="-4 -4 30 30" id="icon_bell_22x22_red" y="268" xmlns="http://www.w3.org/2000/svg"><path fill-rule="evenodd" clip-rule="evenodd" d="M1.638 5.502a8.612 8.612 0 0 1 3.145-4.097L4.15.5A9.746 9.746 0 0 0 .6 5.123l1.038.38zm16.13 0a8.612 8.612 0 0 0-3.145-4.097L15.256.5a9.746 9.746 0 0 1 3.55 4.623l-1.038.38zm-.273 11.532H1.912a.693.693 0 0 1-.607-1.029l1.202-2.164v-5.4c0-3.973 3.228-7.206 7.196-7.206 3.969 0 7.197 3.233 7.197 7.207v5.4l1.2 2.162a.695.695 0 0 1-.605 1.03zM6.612 18.145a4.14 4.14 0 0 0 6.183 0H6.612z" fill="#F4361E"/></svg><svg width="25" height="23" viewBox="-4 -4 25 23" id="icon_bell_plus_17x15_black" x="220" y="117" xmlns="http://www.w3.org/2000/svg"><path fill-rule="evenodd" d="M7.175 0c2.912 0 5.331 2.167 5.8 5h-.991c-.456-2.28-2.439-4-4.81-4-2.706 0-4.907 2.243-4.907 5v4.618L1.588 12h10.013v1h-1.52c-.466 1.186-1.608 2-2.897 2-1.29 0-2.432-.814-2.898-2H0l1.285-2.618V6c0-3.308 2.642-6 5.89-6zm1.802 13H5.39c.385.605 1.052 1 1.794 1 .74 0 1.408-.395 1.793-1zm5.569-6.5V9H17v1.5h-2.454V13h-1.473v-2.5H10.62V9h2.454V6.5h1.473z"/></svg><svg width="25" height="23" viewBox="-4 -4 25 23" id="icon_bell_plus_17x15_white" x="90" y="268" xmlns="http://www.w3.org/2000/svg"><path fill="#FFF" fill-rule="evenodd" d="M7.175 0c2.912 0 5.331 2.167 5.8 5h-.991c-.456-2.28-2.439-4-4.81-4-2.706 0-4.907 2.243-4.907 5v4.618L1.588 12h10.013v1h-1.52c-.466 1.186-1.608 2-2.897 2-1.29 0-2.432-.814-2.898-2H0l1.285-2.618V6c0-3.308 2.642-6 5.89-6zm1.802 13H5.39c.385.605 1.052 1 1.794 1 .74 0 1.408-.395 1.793-1zm5.569-6.5V9H17v1.5h-2.454V13h-1.473v-2.5H10.62V9h2.454V6.5h1.473z"/></svg><svg width="30" height="30" fill="none" viewBox="-4 -4 30 30" id="icon_bell_plus_22x22_red" x="30" y="268" xmlns="http://www.w3.org/2000/svg"><path fill-rule="evenodd" clip-rule="evenodd" d="M21.212 12.553h-2.919v-2.92h-1.39v2.92h-2.92v1.39h2.92v2.919h1.39v-2.919h2.92v-1.39z" fill="#F4361E"/><path fill-rule="evenodd" clip-rule="evenodd" d="M9.814 18.252a3.048 3.048 0 0 1-2.565-1.39h5.13a3.047 3.047 0 0 1-2.565 1.39zm5.699-1.39v-1.113H2.697l.931-1.675a.558.558 0 0 0 .07-.27V8.52a6.123 6.123 0 0 1 6.116-6.115 6.125 6.125 0 0 1 6.11 5.838h1.113c-.148-3.858-3.33-6.95-7.223-6.95-3.985 0-7.228 3.242-7.228 7.227v5.138L1.38 15.83a.696.696 0 0 0 .608 1.03h4.004a4.156 4.156 0 0 0 3.822 2.503c1.677 0 3.165-.99 3.822-2.502h1.877z" fill="#F4361E"/><path d="M7.25 16.862v-.065h-.12l.065.1.054-.035zm5.129 0 .054.035.064-.1h-.118v.065zm3.134 0v.064h.065v-.065h-.065zm0-1.113h.065v-.064h-.065v.064zm-12.816 0-.057-.031-.053.096h.11v-.065zm.931-1.675.057.031-.057-.031zm12.296-5.83-.065.002.003.062h.062v-.064zm1.113 0v.064h.067l-.003-.067-.064.003zM2.585 13.659l.057.032.008-.015v-.017h-.065zM1.38 15.83l-.057-.031.057.031zm4.612 1.031.06-.026-.018-.039h-.042v.065zm7.644 0v-.065h-.042l-.017.04.06.025zm-3.822 1.326a2.984 2.984 0 0 1-2.51-1.36l-.109.07a3.113 3.113 0 0 0 2.619 1.42v-.13zm-2.565-1.26h5.13v-.13h-5.13v.13zm5.075-.1a2.982 2.982 0 0 1-2.51 1.36v.13c1.08 0 2.054-.548 2.619-1.42l-.109-.07zm3.254.034V15.75h-.13v1.112h.13zm-.065-1.176H2.697v.13h12.816v-.13zm-12.76.096.932-1.676-.113-.063-.932 1.676.113.063zm.932-1.676a.622.622 0 0 0 .078-.301h-.13a.493.493 0 0 1-.061.239l.113.062zm.078-.301V8.52h-.13v5.283h.13zm0-5.283a6.058 6.058 0 0 1 6.051-6.05v-.13a6.188 6.188 0 0 0-6.18 6.18h.13zm6.051-6.05a6.06 6.06 0 0 1 6.045 5.775l.13-.005a6.19 6.19 0 0 0-6.175-5.9v.13zm6.11 5.837h.979v-.13h-.98v.13zm.979 0h.134v-.13h-.134v.13zm.198-.067c-.149-3.892-3.36-7.012-7.287-7.012v.13c3.857 0 7.012 3.064 7.158 6.887l.13-.005zM9.814 1.23c-4.021 0-7.293 3.272-7.293 7.292h.13c0-3.949 3.213-7.162 7.163-7.162v-.13zM2.521 8.521v5.138h.13V8.521h-.13zm.008 5.107-1.206 2.17.114.064 1.206-2.171-.114-.063zm-1.206 2.171a.764.764 0 0 0 .011.754l.112-.066a.634.634 0 0 1-.01-.625l-.113-.063zm.011.754a.76.76 0 0 0 .654.373v-.13a.632.632 0 0 1-.542-.309l-.112.066zm.654.373h4.004v-.13H1.988v.13zm3.945-.04a4.22 4.22 0 0 0 3.881 2.542v-.13a4.092 4.092 0 0 1-3.763-2.463l-.118.052zm3.881 2.542a4.22 4.22 0 0 0 3.882-2.541l-.119-.052a4.092 4.092 0 0 1-3.763 2.463v.13zm3.822-2.502h1.877v-.13h-1.877v.13z" fill="#F4361E"/></svg><svg width="22" height="18" viewBox="-4 -4 22 18" id="icon_check_14x10_black" x="83" y="205" xmlns="http://www.w3.org/2000/svg"><path fill="#090909" fill-rule="evenodd" d="M4.682 10a.8.8 0 0 1-.564-.23L.233 5.927a.782.782 0 0 1 0-1.114.803.803 0 0 1 1.127 0l3.322 3.284L12.639.23a.803.803 0 0 1 1.127 0 .781.781 0 0 1 0 1.114L5.246 9.77a.8.8 0 0 1-.564.231"/></svg><svg width="23" height="19" viewBox="-4 -4 23 19" id="icon_check_15x11_black" x="314" y="119" xmlns="http://www.w3.org/2000/svg"><path d="M.905 4.994 0 5.91 5.637 11 15 .832 14.01 0 5.55 9.189z"/></svg><svg width="23" height="19" viewBox="-4 -4 23 19" id="icon_check_15x11_white" x="314" y="138" xmlns="http://www.w3.org/2000/svg"><path fill="#FFF" d="M.905 4.994 0 5.91 5.637 11 15 .832 14.01 0 5.55 9.189z"/></svg><svg width="114" height="27" viewBox="-4 -4 114 27" id="icon_datalab_106x19_black" x="140" xmlns="http://www.w3.org/2000/svg"><g fill="none" fill-rule="evenodd"><path fill="#1E1E1E" d="M58 0v19h11v-2.373h-8.676V0zm28 0v16.56L88.368 19h7.264L98 16.56V7.237l-2.398-2.471h-5.26l-2.125 2.19V0H86zm2.217 15.912v-6.29l2.695-2.776h3.863l.978 1.007-.002 8.06-.978 1.008h-5.577l-.979-1.009zM19.522 5l-1.815 1.863 1.348 1.384 1.171-1.202h5.62l.966.99v2.616h-7.58L17 12.951v3.626L19.333 19h7.33L29 16.599V7.4L26.662 5h-7.14zm-.334 10.952v-2.354l.998-1.018h6.626v3.387l-.963.988h-5.695l-.966-1.003zM43.522 5l-1.815 1.863 1.348 1.384 1.171-1.202h5.62l.966.99v2.616h-7.58L41 12.951v3.626L43.333 19h7.33L53 16.599V7.4L50.662 5h-7.14zm-.334 10.952v-2.354l.998-1.018h6.626v3.387l-.963.988h-5.695l-.966-1.003zM73.522 5l-1.814 1.863 1.347 1.384 1.172-1.202h5.62l.965.99v2.616h-7.58L71 12.951v3.626L73.333 19h7.33L83 16.599V7.4L80.662 5h-7.14zm-.334 10.952v-2.354l.998-1.018h6.626v3.387l-.962.988h-5.696l-.966-1.003zM32 0v16.647L34.362 19H39v-2.079h-3.664l-1.012-1.008V6.791H39V4.71h-4.676V0zM0 0v19h10.451L14 15.462V3.538L10.451 0H0zm2.413 2.32H9.53l2.04 2.05v10.26l-2.04 2.05H2.413V2.32z"/><path fill="#00C73C" d="M102 19h4v-4h-4z"/></g></svg><svg width="26" height="23" fill="none" viewBox="-4 -4 26 23" id="icon_double_heart_18x15_gray" x="194" y="117" xmlns="http://www.w3.org/2000/svg"><mask id="ala" style="mask-type:alpha" maskUnits="userSpaceOnUse" x="7" y="1" width="11" height="14"><path fill-rule="evenodd" clip-rule="evenodd" d="m11.21 5.895-.928-.75L13 1.5l5 6-7.5 7.5-2.504-2.47.725-.865 2.49-5.77z" fill="#fff"/></mask><g mask="url(#ala)"><path clip-rule="evenodd" d="M16.181 7.176 12.816 3.7a.336.336 0 0 0-.488-.001l-2.044 2.108-2.045-2.108a.337.337 0 0 0-.487 0L4.383 7.173a.363.363 0 0 0 0 .502l5.657 5.834a.337.337 0 0 0 .487 0l5.654-5.83a.363.363 0 0 0 0-.503z" stroke="#929294"/></g><path clip-rule="evenodd" d="M12.681 7.176 9.316 3.7a.336.336 0 0 0-.488-.001L6.784 5.806 4.739 3.698a.337.337 0 0 0-.487 0L.883 7.173a.363.363 0 0 0 0 .502L6.54 13.51a.337.337 0 0 0 .487 0l5.654-5.83a.363.363 0 0 0 0-.503z" stroke="#929294"/></svg><svg width="34" height="34" fill="none" viewBox="-4 -4 34 34" id="icon_download_26x26_white" x="166" y="166" xmlns="http://www.w3.org/2000/svg"><path d="M12.926 1.27v15.675" stroke="#fff" stroke-width="1.363" stroke-linecap="square" stroke-linejoin="round"/><path d="m6.792 11.492 6.134 6.134 6.133-6.134M1.68 19.5v4.43H24V19.5" stroke="#fff" stroke-width="1.363" stroke-linecap="square"/></svg><svg width="83" height="83" viewBox="-4 -4 83 83" id="icon_exclamation_mask_75x75_white" y="140" xmlns="http://www.w3.org/2000/svg"><path fill="#FFF" fill-rule="evenodd" d="M75 0v75H0V0h75zM37.5 1C17.342 1 1 17.342 1 37.5S17.342 74 37.5 74 74 57.658 74 37.5 57.658 1 37.5 1zm0 1C57.106 2 73 17.894 73 37.5S57.106 73 37.5 73 2 57.106 2 37.5 17.894 2 37.5 2zm0 45a1.5 1.5 0 1 0 0 3 1.5 1.5 0 0 0 0-3zm0-24a1 1 0 0 0-1 1v19a1 1 0 0 0 2 0V24a1 1 0 0 0-1-1z"/></svg><svg width="23" height="23" fill="none" viewBox="-4 -4 23 23" id="icon_eye_15x15_white" x="314" y="157" xmlns="http://www.w3.org/2000/svg"><path fill-rule="evenodd" clip-rule="evenodd" d="M7.467 2.48C4.129 2.48 1.32 4.377.489 6.56c.832 2.181 3.64 4.08 6.978 4.08 3.338 0 6.145-1.899 6.977-4.08-.832-2.182-3.64-4.08-6.977-4.08zm0 6.644c-1.447 0-2.62-1.148-2.62-2.565 0-1.416 1.173-2.564 2.62-2.564s2.62 1.148 2.62 2.564c0 1.417-1.173 2.565-2.62 2.565zM6.457 6.56a1 1 0 0 1 1.01-.989 1 1 0 0 1 1.01.989 1 1 0 0 1-1.01.988 1 1 0 0 1-1.01-.988z" fill="#fff"/></svg><svg width="31" height="31" fill="none" viewBox="-4 -4 31 31" id="icon_eye_23x23_white" x="260" y="223" xmlns="http://www.w3.org/2000/svg"><path fill-rule="evenodd" clip-rule="evenodd" d="M11.614 4.91C6.167 4.91 1.586 8.006.23 11.566c1.357 3.56 5.938 6.658 11.385 6.658S21.642 15.127 23 11.567c-1.358-3.56-5.94-6.658-11.386-6.658zm-.001 10.84c-2.361 0-4.275-1.873-4.275-4.184 0-2.31 1.914-4.184 4.275-4.184 2.362 0 4.276 1.873 4.276 4.184s-1.914 4.184-4.276 4.184zm-1.648-4.184c0-.89.738-1.613 1.648-1.613.91 0 1.648.722 1.648 1.613s-.738 1.614-1.648 1.614c-.91 0-1.648-.723-1.648-1.614z" fill="#fff"/></svg><svg width="96" height="24" viewBox="-4 -4 96 24" id="icon_fivestar_88x16_red" x="140" y="69" xmlns="http://www.w3.org/2000/svg"><path d="m5.691 5.293-4.77.067a.756.756 0 0 0-.454 1.352l3.795 2.96-1.354 4.492a.756.756 0 0 0 1.145.847L8 12.376l3.948 2.636a.756.756 0 0 0 1.144-.847L11.74 9.67l3.793-2.959a.756.756 0 0 0-.455-1.352l-4.768-.067L8.714.757a.756.756 0 0 0-1.427 0L5.69 5.294zm18 0-4.77.067a.756.756 0 0 0-.454 1.352l3.795 2.96-1.354 4.492a.756.756 0 0 0 1.145.847L26 12.376l3.948 2.636a.756.756 0 0 0 1.144-.847L29.74 9.67l3.793-2.959a.756.756 0 0 0-.455-1.352l-4.768-.067L26.714.757a.756.756 0 0 0-1.427 0L23.69 5.294zm18 0-4.77.067a.756.756 0 0 0-.454 1.352l3.795 2.96-1.354 4.492a.756.756 0 0 0 1.145.847L44 12.376l3.948 2.636a.756.756 0 0 0 1.144-.847L47.74 9.67l3.793-2.959a.756.756 0 0 0-.455-1.352l-4.768-.067L44.714.757a.756.756 0 0 0-1.427 0L41.69 5.294zm18 0-4.77.067a.756.756 0 0 0-.454 1.352l3.795 2.96-1.354 4.492a.756.756 0 0 0 1.145.847L62 12.376l3.948 2.636a.756.756 0 0 0 1.144-.847L65.74 9.67l3.793-2.959a.756.756 0 0 0-.455-1.352l-4.768-.067L62.714.757a.756.756 0 0 0-1.427 0L59.69 5.294zm18 0-4.77.067a.756.756 0 0 0-.454 1.352l3.795 2.96-1.354 4.492a.756.756 0 0 0 1.145.847L80 12.376l3.948 2.636a.756.756 0 0 0 1.144-.847L83.74 9.67l3.793-2.959a.756.756 0 0 0-.455-1.352l-4.768-.067L80.714.757a.756.756 0 0 0-1.427 0L77.69 5.294z" fill="#F53436" fill-rule="evenodd"/></svg><svg width="96" height="24" viewBox="-4 -4 96 24" id="icon_fivestar_border_88x16_red" x="140" y="93" xmlns="http://www.w3.org/2000/svg"><path d="m7.758.924-1.71 4.864-5.12.072a.256.256 0 0 0-.153.458l4.064 3.17-1.452 4.82a.256.256 0 0 0 .388.287L8 11.775l4.226 2.82a.256.256 0 0 0 .387-.286l-1.45-4.822 4.063-3.169a.256.256 0 0 0-.155-.458l-5.117-.072L8.242.923a.256.256 0 0 0-.484 0zm18 0-1.71 4.864-5.12.072a.256.256 0 0 0-.153.458l4.064 3.17-1.452 4.82a.256.256 0 0 0 .388.287L26 11.775l4.226 2.82a.256.256 0 0 0 .387-.286l-1.45-4.822 4.063-3.169a.256.256 0 0 0-.155-.458l-5.117-.072L26.242.923a.256.256 0 0 0-.484 0zm18 0-1.71 4.864-5.12.072a.256.256 0 0 0-.153.458l4.064 3.17-1.452 4.82a.256.256 0 0 0 .388.287L44 11.775l4.226 2.82a.256.256 0 0 0 .387-.286l-1.45-4.822 4.063-3.169a.256.256 0 0 0-.155-.458l-5.117-.072L44.242.923a.256.256 0 0 0-.484 0zm18 0-1.71 4.864-5.12.072a.256.256 0 0 0-.153.458l4.064 3.17-1.452 4.82a.256.256 0 0 0 .388.287L62 11.775l4.226 2.82a.256.256 0 0 0 .387-.286l-1.45-4.822 4.063-3.169a.256.256 0 0 0-.155-.458l-5.117-.072L62.242.923a.256.256 0 0 0-.484 0zm18 0-1.71 4.864-5.12.072a.256.256 0 0 0-.153.458l4.064 3.17-1.452 4.82a.256.256 0 0 0 .388.287L80 11.775l4.226 2.82a.256.256 0 0 0 .387-.286l-1.45-4.822 4.063-3.169a.256.256 0 0 0-.155-.458l-5.117-.072L80.242.923a.256.256 0 0 0-.484 0z" fill="none" fill-rule="evenodd" stroke="#F43435"/></svg><svg width="60" height="68" viewBox="-4 -4 60 68" id="icon_flag_52x60_ashblue" x="254" xmlns="http://www.w3.org/2000/svg"><path fill="#78869f" fill-rule="evenodd" d="M0 0v60l25.975-9.889L52 60V0z"/></svg><svg width="60" height="68" viewBox="-4 -4 60 68" id="icon_flag_52x60_darkgray" x="254" y="68" xmlns="http://www.w3.org/2000/svg"><path fill="#5b5b5b" fill-rule="evenodd" d="M0 0v60l25.975-9.889L52 60V0z"/></svg><svg width="34" height="34" fill="none" viewBox="-4 -4 34 34" id="icon_heart_26x26_black" x="200" y="166" xmlns="http://www.w3.org/2000/svg"><path opacity=".4" d="M11.218 6.945A5.166 5.166 0 0 0 7.608 5.5a5.15 5.15 0 0 0-3.606 1.444 4.84 4.84 0 0 0 0 7.009l8.98 8.547 9.268-8.818c1.751-1.918 1.658-4.894-.251-6.737A5.153 5.153 0 0 0 18.392 5.5a5.16 5.16 0 0 0-3.612 1.444l-3.965 3.788a2.34 2.34 0 0 0-.761 1.717c0 .647.27 1.257.76 1.717 1.014.95 2.668.95 3.684 0l3.867-3.676" stroke="#000" stroke-opacity=".93" stroke-width="1.25"/></svg><svg width="34" height="34" fill="none" viewBox="-4 -4 34 34" id="icon_heart_26x26_white" x="160" y="223" xmlns="http://www.w3.org/2000/svg"><path opacity=".9" d="M11.218 6.945A5.166 5.166 0 0 0 7.608 5.5a5.15 5.15 0 0 0-3.606 1.444 4.84 4.84 0 0 0 0 7.009l8.98 8.547 9.268-8.818c1.751-1.918 1.658-4.894-.251-6.737A5.153 5.153 0 0 0 18.392 5.5a5.16 5.16 0 0 0-3.612 1.444l-3.965 3.788a2.34 2.34 0 0 0-.761 1.717c0 .647.27 1.257.76 1.717 1.014.95 2.668.95 3.684 0l3.867-3.676" stroke="#fff" stroke-opacity=".93" stroke-width="1.25"/></svg><svg width="45" height="45" fill="none" viewBox="-4 -4 45 45" id="icon_heart_37x37_gray" y="223" xmlns="http://www.w3.org/2000/svg"><path d="M16.998 13.697a4.146 4.146 0 0 0-2.879-1.139 4.133 4.133 0 0 0-2.875 1.138 3.783 3.783 0 0 0 0 5.523l7.16 6.734 7.39-6.948c1.396-1.511 1.322-3.856-.2-5.308a4.135 4.135 0 0 0-2.877-1.139c-1.087 0-2.11.403-2.88 1.138l-3.16 2.985a1.833 1.833 0 0 0-.608 1.352c0 .51.216.991.607 1.354.808.748 2.127.748 2.937 0l3.083-2.897" stroke="silver" stroke-width="1.5"/><circle opacity=".1" cx="18.5" cy="18.5" r="18" stroke="#000"/></svg><svg width="45" height="45" fill="none" viewBox="-4 -4 45 45" id="icon_heart_37x37_red" x="45" y="223" xmlns="http://www.w3.org/2000/svg"><circle fill="#f54c4a" cx="18.5" cy="18.5" r="18" stroke="transparent"/><path d="M16.998 13.697a4.146 4.146 0 0 0-2.879-1.139 4.133 4.133 0 0 0-2.875 1.138 3.783 3.783 0 0 0 0 5.523l7.16 6.734 7.39-6.948c1.396-1.511 1.322-3.856-.2-5.308a4.135 4.135 0 0 0-2.877-1.139c-1.087 0-2.11.403-2.88 1.138l-3.16 2.985a1.833 1.833 0 0 0-.608 1.352c0 .51.216.991.607 1.354.808.748 2.127.748 2.937 0l3.083-2.897" stroke="#FFF" stroke-width="1.5" opacity=".9"/></svg><svg width="27" height="23" viewBox="-4 -4 27 23" id="icon_heart_plus_19x15_black" x="140" y="117" xmlns="http://www.w3.org/2000/svg"><g fill-rule="evenodd"><path d="M5.454 6.351c0 .638.252 1.236.71 1.687.94.927 2.472.927 3.417-.002l2.792-2.791-.76-.761-2.789 2.788a1.365 1.365 0 0 1-1.905 0 1.285 1.285 0 0 1 .003-1.845L9.789 2.55a3.098 3.098 0 0 1 2.223-.937c.84 0 1.629.333 2.222.937a3.26 3.26 0 0 1 .6 3.713h1.168a4.346 4.346 0 0 0-1-4.468 4.16 4.16 0 0 0-2.99-1.257 4.164 4.164 0 0 0-2.988 1.255l-2.86 2.872a2.348 2.348 0 0 0-.71 1.686"/><path d="M9.733 12.179v-.583l-1.627 1.626-6.102-6.106a3.267 3.267 0 0 1 0-4.567 3.103 3.103 0 0 1 4.445.001l.767-.755A4.17 4.17 0 0 0 4.226.538a4.16 4.16 0 0 0-2.988 1.256c-1.65 1.675-1.651 4.4.003 6.08l6.865 6.87 1.627-1.627v-.938zm8.605-1.614h-2.69V7.876h-1.613v2.69h-2.689v1.613h2.69v2.689h1.613v-2.69h2.689z"/></g></svg><svg width="27" height="23" viewBox="-4 -4 27 23" id="icon_heart_plus_19x15_white" x="167" y="117" xmlns="http://www.w3.org/2000/svg"><g fill="#FFF" fill-rule="evenodd"><path d="M5.454 6.351c0 .638.252 1.236.71 1.687.94.927 2.472.927 3.417-.002l2.792-2.791-.76-.761-2.789 2.788a1.365 1.365 0 0 1-1.905 0 1.285 1.285 0 0 1 .003-1.845L9.789 2.55a3.098 3.098 0 0 1 2.223-.937c.84 0 1.629.333 2.222.937a3.26 3.26 0 0 1 .6 3.713h1.168a4.346 4.346 0 0 0-1-4.468 4.16 4.16 0 0 0-2.99-1.257 4.164 4.164 0 0 0-2.988 1.255l-2.86 2.872a2.348 2.348 0 0 0-.71 1.686"/><path d="M9.733 12.179v-.583l-1.627 1.626-6.102-6.106a3.267 3.267 0 0 1 0-4.567 3.103 3.103 0 0 1 4.445.001l.767-.755A4.17 4.17 0 0 0 4.226.538a4.16 4.16 0 0 0-2.988 1.256c-1.65 1.675-1.651 4.4.003 6.08l6.865 6.87 1.627-1.627v-.938zm8.605-1.614h-2.69V7.876h-1.613v2.69h-2.689v1.613h2.69v2.689h1.613v-2.69h2.689z"/></g></svg><svg width="23" height="23" fill="none" viewBox="-4 -4 23 23" id="icon_i_circle_15x15_gray" x="314" y="180" xmlns="http://www.w3.org/2000/svg"><path opacity=".2" d="M14.461 7.5A6.961 6.961 0 1 1 .54 7.5a6.961 6.961 0 0 1 13.922 0z" stroke="#000" stroke-width="1.077"/><path opacity=".3" d="M7.5 6.346v4.616" stroke="#000" stroke-width="1.077" stroke-linecap="round"/><circle opacity=".3" cx="7.5" cy="4.039" fill="#000" r=".577"/></svg><svg width="52" height="39" fill="none" viewBox="-4 -4 52 39" id="icon_live_44x31_red" x="83" y="166" xmlns="http://www.w3.org/2000/svg"><path d="M41.94.002 1.018 2.492A1.085 1.085 0 0 0 0 3.577v18.68c0 .572.446 1.05 1.018 1.08l4.997.307v5.142c0 .18.203.279.347.175l6.614-4.894 28.964 1.76a1.086 1.086 0 0 0 1.148-1.08V1.087A1.082 1.082 0 0 0 41.94.002z" fill="url(#bba)"/><path d="M8.532 6.85H6.02v11.837h7.005v-2.49H8.532V6.85zm9.136 0h-2.513v11.837h2.513V6.85zm20.13 2.494V6.85H30.4v11.837h7.398v-2.49h-4.88v-2.265H37v-2.49h-4.084V9.345h4.88zM26.28 6.85l-2.102 8.838L22.08 6.85h-2.652l3.237 11.837h3.03L28.932 6.85H26.28z" fill="#fff"/><defs><linearGradient id="bba" x1="21.546" y1="1.324" x2="21.546" y2="30.587" gradientUnits="userSpaceOnUse"><stop stop-color="#F4361E"/><stop offset="1" stop-color="#F61C00"/></linearGradient></defs></svg><svg width="56" height="56" fill="none" viewBox="-4 -4 56 56" id="icon_lock_48x48_white" x="254" y="136" xmlns="http://www.w3.org/2000/svg"><path fill-rule="evenodd" clip-rule="evenodd" d="M24 5.25A8.75 8.75 0 0 0 15.25 14v1.5H11a3 3 0 0 0-3 3v22a3 3 0 0 0 3 3h26a3 3 0 0 0 3-3v-22a3 3 0 0 0-3-3h-4.25V14A8.75 8.75 0 0 0 24 5.25zm6.25 10.25V14a6.25 6.25 0 1 0-12.5 0v1.5h12.5zm-19.75 3a.5.5 0 0 1 .5-.5h26a.5.5 0 0 1 .5.5v22a.5.5 0 0 1-.5.5H11a.5.5 0 0 1-.5-.5v-22zM25 30.33a3.001 3.001 0 1 0-2 0v5.17a1 1 0 1 0 2 0v-5.17z" fill="#fff"/></svg><svg width="25" height="21" fill="none" viewBox="-4 -4 25 21" id="icon_loudspeaker_17x13_white" x="115" y="268" xmlns="http://www.w3.org/2000/svg"><path fill-rule="evenodd" clip-rule="evenodd" d="M8.013 1.048c.221-.136.498.034.498.305v10.294c0 .271-.277.44-.498.305L3.83 9.2H1.764c-.422 0-.764-.364-.764-.812V4.613c0-.448.342-.812.764-.812H3.83l4.183-2.753Z" fill="#fff" stroke="#fff" stroke-width=".5" stroke-linecap="round"/><path d="M12 4.749c.566.518.918 1.245.918 2.051 0 .805-.352 1.533-.918 2.051M14 2.5c1.374.98 2.263 2.542 2.263 4.3s-.889 3.32-2.263 4.3" stroke="#fff" stroke-width="1.4" stroke-linecap="round"/></svg><svg width="25" height="21" fill="none" viewBox="-4 -4 25 21" id="icon_loudspeaker_off_17x13_white" x="140" y="268" xmlns="http://www.w3.org/2000/svg"><path d="m11.557 4.318 4.442 4.334m-4.442 0 4.442-4.334" stroke="#fff" stroke-width="1.4" stroke-linecap="round"/><path fill-rule="evenodd" clip-rule="evenodd" d="M8.013 1.048c.221-.136.498.034.498.305v10.294c0 .271-.277.44-.498.305L3.83 9.2H1.764C1.342 9.2 1 8.836 1 8.388V4.613c0-.448.342-.812.764-.812H3.83l4.183-2.753z" fill="#fff" stroke="#fff" stroke-width=".5" stroke-linecap="round"/></svg><svg width="109" height="42" viewBox="-4 -4 109 42" id="icon_more_101x34_black" x="140" y="27" xmlns="http://www.w3.org/2000/svg"><g fill="none" fill-rule="evenodd"><rect width="101" height="34" fill="#000" rx="2"/><path fill="#FFF" fill-rule="nonzero" d="M32.352 22h-1.97v-7.134h-.059L27.453 22H26.06l-2.872-7.134h-.058V22h-1.97V11.431h2.563l3.003 7.588h.059l3.003-7.588h2.563V22zm6.526-10.752c3.127 0 5.098 2.102 5.098 5.471 0 3.362-1.97 5.464-5.098 5.464-3.135 0-5.098-2.102-5.098-5.464 0-3.369 1.963-5.471 5.098-5.471zm0 1.846c-1.729 0-2.842 1.406-2.842 3.625 0 2.212 1.106 3.611 2.842 3.611 1.728 0 2.834-1.399 2.834-3.61 0-2.22-1.106-3.626-2.834-3.626zm8.73.066v3.369h1.905c1.113 0 1.765-.637 1.765-1.685 0-1.025-.689-1.684-1.787-1.684h-1.883zm0 4.973V22h-2.212V11.431h4.33c2.43 0 3.822 1.282 3.822 3.37 0 1.354-.703 2.526-1.919 3.002L53.856 22h-2.505l-1.97-3.867h-1.773zM62 20.169V22h-7V11.431h7v1.824h-4.79v2.549h4.52v1.699h-4.52v2.666H62z"/><path fill="#FFF" d="m81 14-5.5 6-5.5-6z"/></g></svg><svg width="80" height="26" fill="none" viewBox="-4 -4 80 26" id="icon_naver_plus_72x18_blue" x="83" y="140" xmlns="http://www.w3.org/2000/svg"><path d="M41.727 4.238 36 0H17.734l-5.461 7.454 5.46 2.823 1.881 3.632h13.9L36 9l5.727-4.762z" fill="url(#bga)"/><path d="M18 10.058V0H1.433C.645 0 0 .637 0 1.415V12.62l9 1.29 9-3.852z" fill="url(#bgb)"/><path d="M35.64 18H17.733l-5.461-3.955L18 9.818l18-.982 5.727 6.093L35.64 18z" fill="#1E9BF5"/><path d="M0 12.543V16.5c0 .825.645 1.5 1.433 1.5H18V9.818L1.253 11.13C.548 11.184 0 11.797 0 12.543z" fill="#03C75A"/><path d="M28.148 7.375V3.744H25.73v3.631h-3.61v2.431h9.637v-2.43h-3.61zm-2.409 2.758-.008 3.313h2.417v-1.71c0-1.162-1.216-1.603-2.41-1.603z" fill="#fff"/><path d="M28.148 7.375V3.744H25.73v3.631h-3.61v2.431h9.637v-2.43h-3.61zm-2.409 2.758-.008 3.313h2.417v-1.71c0-1.162-1.216-1.603-2.41-1.603z" fill="#fff"/><path d="M11.009 8.912 7.672 4.09H4.909v9h2.9V8.27l3.33 4.82h2.77v-9h-2.9v4.822z" fill="url(#bgc)"/><path d="M72 6.128V1.432C72 .646 71.355 0 70.567 0H36v8.835l19.155 2.985L72 6.128z" fill="url(#bgd)"/><path d="M36 8.835V18h34.567c.796 0 1.433-.645 1.433-1.433V6.127L36 8.835z" fill="#505FDC"/><path fill-rule="evenodd" clip-rule="evenodd" d="M47.436 3.994v5.182h1.324V3.994h-1.324zm-3.06.152v1.717h1.008V4.04h1.308v5.136h-1.308v-2.09h-1.008v1.77h-3.789v-4.71h3.79zM41.85 7.702h1.248v-2.4H41.85v2.4zm14.751-.889V3.994h1.376v9.117h-1.376V8.158h-1.82v4.391h-4.54V4.146h1.33v2.72h1.873v-2.72h1.338v2.667h1.82zm-5.03 4.467h1.873V8.15H51.57v3.13z" fill="#fff"/><path d="M67.233 3.994v4.78h-1.376v-4.78h1.376z" fill="#fff"/><path fill-rule="evenodd" clip-rule="evenodd" d="M41.016 13.187v-3.48h7.744v3.48h-7.744zm1.39-1.185h4.978v-1.117h-4.977v1.117zm23.458-1.998v-.783h1.368v3.883h-7.428V9.22h1.391v.783h4.67zm-4.676 1.968h4.676v-.859h-4.676v.859z" fill="#fff"/><path d="M63.736 6.653c-.157-.121-.496-.402-.609-.531a1.586 1.586 0 0 1-.39-1.064v-.912h-1.392v.95c0 .524-.12.858-.488 1.215-.421.403-1.429 1.163-1.887 1.505l.812 1.003c.519-.395 1.51-1.155 1.887-1.505.195-.167.39-.372.428-.486.045.114.248.327.451.486.076.061.173.145.286.228.496.38 1.481 1.125 1.481 1.125l.782-.988c-.007 0-.872-.653-1.36-1.026z" fill="#fff"/><defs><linearGradient id="bga" x1="12.617" y1=".212" x2="12.617" y2="13.796" gradientUnits="userSpaceOnUse"><stop stop-color="#1EBEF5"/><stop offset=".25" stop-color="#1EB9F5"/><stop offset=".5" stop-color="#1EB4F5"/><stop offset=".75" stop-color="#1EAFF5"/><stop offset="1" stop-color="#1EAAF5"/></linearGradient><linearGradient id="bgb" x1=".081" y1="0" x2=".081" y2="13.784" gradientUnits="userSpaceOnUse"><stop stop-color="#03F05A"/><stop offset=".25" stop-color="#03EB5A"/><stop offset=".5" stop-color="#03E65A"/><stop offset=".75" stop-color="#03E15A"/><stop offset="1" stop-color="#03DC5A"/></linearGradient><linearGradient id="bgc" x1="4.822" y1="4.063" x2="4.822" y2="13.237" gradientUnits="userSpaceOnUse"><stop stop-color="#fff"/><stop offset=".9" stop-color="#fff"/><stop offset="1" stop-color="#fff"/></linearGradient><linearGradient id="bgd" x1="35.998" y1="-.024" x2="35.998" y2="11.797" gradientUnits="userSpaceOnUse"><stop stop-color="#4696F0"/><stop offset=".25" stop-color="#5091F0"/><stop offset=".522" stop-color="#468CF0"/><stop offset=".75" stop-color="#4687F0"/><stop offset="1" stop-color="#4682F0"/></linearGradient></defs></svg><svg width="32" height="42" fill="none" viewBox="-4 -4 32 42" id="icon_pause_24x34_white" x="90" y="223" xmlns="http://www.w3.org/2000/svg"><rect width="8.571" height="34" rx="1" fill="#fff"/><rect x="15.429" width="8.571" height="34" rx="1" fill="#fff"/></svg><svg width="20" height="23" fill="none" viewBox="-4 -4 20 23" id="icon_play_12x15_gray" x="314" y="203" xmlns="http://www.w3.org/2000/svg"><path clip-rule="evenodd" d="m2.906 2.69 6.44 4.234a.618.618 0 0 1 0 1.024l-6.44 4.234c-.392.257-.906-.034-.906-.514V3.202c0-.48.514-.77.906-.512z" stroke="#929294"/></svg><svg width="30" height="30" fill="none" viewBox="-4 -4 30 30" id="icon_play_22x22_white" x="60" y="268" xmlns="http://www.w3.org/2000/svg"><path clip-rule="evenodd" d="M6.338 2.65a.764.764 0 0 0-.446-.15.757.757 0 0 0-.446.15c-.275.2-.446.57-.446.967v14.767c0 .396.17.766.445.966a.771.771 0 0 0 .445.15c.16 0 .314-.052.45-.15l10.215-7.383c.275-.2.445-.57.445-.968 0-.396-.17-.766-.445-.965L6.338 2.65Z" stroke="#fff"/></svg><svg width="31" height="35" viewBox="-4 -4 31 35" id="icon_play_23x27_white" x="135" y="166" xmlns="http://www.w3.org/2000/svg"><path fill="#FFF" fill-rule="evenodd" d="M2.427.467 21.733 12.13a1.597 1.597 0 0 1 0 2.738L2.427 26.533A1.598 1.598 0 0 1 0 25.164V1.836A1.6 1.6 0 0 1 2.427.466z"/></svg><svg width="38" height="42" fill="none" viewBox="-4 -4 38 42" id="icon_play_30x34_white" x="122" y="223" xmlns="http://www.w3.org/2000/svg"><path fill-rule="evenodd" clip-rule="evenodd" d="M3.963.294a2.068 2.068 0 0 0-2.123 0A2.21 2.21 0 0 0 .777 2.191v28.954a2.21 2.21 0 0 0 1.06 1.894 2.07 2.07 0 0 0 2.128-.001l24.323-14.476a2.212 2.212 0 0 0 1.06-1.896 2.21 2.21 0 0 0-1.058-1.894L3.963.294z" fill="#fff"/></svg><svg width="34" height="34" fill="none" viewBox="-4 -4 34 34" id="icon_plus_26x26_black" x="194" y="223" xmlns="http://www.w3.org/2000/svg"><path d="M13 4v18m-9-9h18" opacity=".4" stroke="#000" stroke-width="1.5"/></svg><svg width="23" height="23" fill="none" viewBox="-4 -4 23 23" id="icon_question_15x15_black" x="314" y="226" xmlns="http://www.w3.org/2000/svg"><circle opacity=".3" cx="7.5" cy="7.5" r="6.964" stroke="#000" stroke-width="1.071"/><circle cx="7.448" cy="10.5" r=".75" fill="#000"/><path d="M6.985 9.077v.05H7.938v-.093c.004-.29.035-.53.09-.721.055-.19.143-.353.263-.489.121-.14.284-.274.49-.402.211-.13.393-.28.543-.45.153-.17.27-.364.35-.58.083-.217.124-.459.124-.724 0-.378-.087-.716-.262-1.013a1.83 1.83 0 0 0-.737-.7c-.316-.17-.687-.255-1.11-.255-.39 0-.747.077-1.07.232-.32.156-.58.38-.776.674-.195.296-.301.65-.32 1.06l-.003.052H6.514l.003-.047c.019-.273.087-.49.2-.653.117-.166.26-.286.431-.363a1.31 1.31 0 0 1 .54-.116c.216 0 .41.044.585.133.175.088.314.213.418.376.103.161.155.353.155.577a1.293 1.293 0 0 1-.348.885c-.109.113-.23.21-.366.294a3.147 3.147 0 0 0-.606.465 1.69 1.69 0 0 0-.396.67c-.092.274-.14.64-.145 1.094v.044Z" fill="#000" stroke="#000" stroke-width=".1"/></svg><svg width="23" height="23" fill="none" viewBox="-4 -4 23 23" id="icon_question_15x15_darkwhite" x="314" y="249" xmlns="http://www.w3.org/2000/svg"><circle opacity=".3" cx="7.5" cy="7.5" r="6.964" stroke="#fff" stroke-width="1.071"/><circle cx="7.448" cy="10.5" r=".75" fill="#fff"/><path d="M6.985 9.077v.05H7.938v-.093c.004-.29.035-.53.09-.721.055-.19.143-.353.263-.489.121-.14.284-.274.49-.402.211-.13.393-.28.543-.45.153-.17.27-.364.35-.58.083-.217.124-.459.124-.724 0-.378-.087-.716-.262-1.013a1.83 1.83 0 0 0-.737-.7c-.316-.17-.687-.255-1.11-.255-.39 0-.747.077-1.07.232-.32.156-.58.38-.776.674-.195.296-.301.65-.32 1.06l-.003.052H6.514l.003-.047c.019-.273.087-.49.2-.653.117-.166.26-.286.431-.363a1.31 1.31 0 0 1 .54-.116c.216 0 .41.044.585.133.175.088.314.213.418.376.103.161.155.353.155.577a1.293 1.293 0 0 1-.348.885c-.109.113-.23.21-.366.294a3.147 3.147 0 0 0-.606.465 1.69 1.69 0 0 0-.396.67c-.092.274-.14.64-.145 1.094v.044Z" fill="#fff" stroke="#fff" stroke-width=".1"/></svg><svg width="23" height="23" fill="none" viewBox="-4 -4 23 23" id="icon_question_15x15_lightblack" x="314" y="272" xmlns="http://www.w3.org/2000/svg"><circle opacity=".18" cx="7.5" cy="7.5" r="6.964" stroke="#000" stroke-width="1.071"/><circle cx="7.448" cy="10.5" r=".75" fill="#000"/><path d="M6.985 9.077v.05H7.938v-.093c.004-.29.035-.53.09-.721.055-.19.143-.353.263-.489.121-.14.284-.274.49-.402.211-.13.393-.28.543-.45.153-.17.27-.364.35-.58.083-.217.124-.459.124-.724 0-.378-.087-.716-.262-1.013a1.83 1.83 0 0 0-.737-.7c-.316-.17-.687-.255-1.11-.255-.39 0-.747.077-1.07.232-.32.156-.58.38-.776.674-.195.296-.301.65-.32 1.06l-.003.052H6.514l.003-.047c.019-.273.087-.49.2-.653.117-.166.26-.286.431-.363a1.31 1.31 0 0 1 .54-.116c.216 0 .41.044.585.133.175.088.314.213.418.376.103.161.155.353.155.577a1.293 1.293 0 0 1-.348.885c-.109.113-.23.21-.366.294a3.147 3.147 0 0 0-.606.465 1.69 1.69 0 0 0-.396.67c-.092.274-.14.64-.145 1.094v.044Z" fill="#000" stroke="#000" stroke-width=".1"/></svg><svg width="23" height="23" fill="none" viewBox="-4 -4 23 23" id="icon_question_15x15_white" x="291" y="223" xmlns="http://www.w3.org/2000/svg"><circle opacity=".7" cx="7.5" cy="7.5" r="6.964" stroke="#fff" stroke-width="1.071"/><circle cx="7.448" cy="10.5" r=".75" fill="#fff"/><path d="M6.985 9.077v.05H7.938v-.093c.004-.29.035-.53.09-.721.055-.19.143-.353.263-.489.121-.14.284-.274.49-.402.211-.13.393-.28.543-.45.153-.17.27-.364.35-.58.083-.217.124-.459.124-.724 0-.378-.087-.716-.262-1.013a1.83 1.83 0 0 0-.737-.7c-.316-.17-.687-.255-1.11-.255-.39 0-.747.077-1.07.232-.32.156-.58.38-.776.674-.195.296-.301.65-.32 1.06l-.003.052H6.514l.003-.047c.019-.273.087-.49.2-.653.117-.166.26-.286.431-.363a1.31 1.31 0 0 1 .54-.116c.216 0 .41.044.585.133.175.088.314.213.418.376.103.161.155.353.155.577a1.293 1.293 0 0 1-.348.885c-.109.113-.23.21-.366.294a3.147 3.147 0 0 0-.606.465 1.69 1.69 0 0 0-.396.67c-.092.274-.14.64-.145 1.094v.044Z" fill="#fff" stroke="#fff" stroke-width=".1"/></svg><svg width="25" height="25" viewBox="-4 -4 25 25" id="icon_question_17x17_white" x="314" xmlns="http://www.w3.org/2000/svg"><g fill="none" fill-rule="evenodd" transform="translate(1 1)"><rect width="14.063" height="14.063" x=".469" y=".469" fill="#FFF" stroke="#DDD" rx="7.031"/><path fill="#555" fill-rule="nonzero" d="M5.378 5.933c.045-1.144.825-2.01 2.286-2.01 1.33 0 2.226.79 2.226 1.869 0 .78-.394 1.33-1.058 1.727-.65.382-.836.65-.836 1.168v.307H6.953l-.004-.403c-.026-.71.281-1.162.972-1.576.61-.367.825-.66.825-1.178 0-.57-.447-.987-1.137-.987-.695 0-1.144.418-1.189 1.083H5.378zm2.104 5.393a.647.647 0 0 1-.659-.65.647.647 0 0 1 .66-.65c.377 0 .665.282.665.65a.645.645 0 0 1-.666.65z"/></g></svg><svg width="19" height="19" viewBox="-4 -4 19 19" id="icon_report_11x11_gray" x="187" y="268" xmlns="http://www.w3.org/2000/svg"><g fill="none" fill-rule="evenodd"><path fill="#9B9B9B" d="M.045 8.442h10.91v2.103H.045V8.442zm1.091-.78h8.728V3.844C9.864 1.738 7.908.026 5.5.026c-2.407 0-4.364 1.711-4.364 3.818v3.818z"/><path stroke="#FFF" stroke-width=".5" d="M3.138 4.025S2.978 1.872 5.45 1.67"/></g></svg><svg width="24" height="24" viewBox="-4 -4 24 24" id="icon_search_16x16_black" x="314" y="71" xmlns="http://www.w3.org/2000/svg"><path fill-rule="evenodd" d="M7 0a7 7 0 0 1 5.44 11.405l3.56 3.56L14.964 16l-3.559-3.56A7 7 0 1 1 7 0zm0 1.5a5.5 5.5 0 1 0 0 11 5.5 5.5 0 0 0 0-11z"/></svg><svg width="24" height="24" viewBox="-4 -4 24 24" id="icon_search_16x16_white" x="314" y="95" xmlns="http://www.w3.org/2000/svg"><path fill="#F7F7F7" d="M7 0a7 7 0 0 1 5.44 11.405l3.56 3.56L14.964 16l-3.559-3.56A7 7 0 1 1 7 0zm0 1.5a5.5 5.5 0 1 0 0 11 5.5 5.5 0 0 0 0-11z"/></svg><svg width="21" height="22" viewBox="-4 -4 21 22" id="icon_secret_13x14_gray" x="23" y="298" xmlns="http://www.w3.org/2000/svg"><g fill="#AAA" fill-rule="evenodd"><path d="M1 12.99h11v-7H1v7zM4 4C4 2.346 4.848.99 6.502.99 8.157.99 9 2.346 9 4v1H4V4zm5.998 1V4c0-2.206-1.292-4.01-3.498-4.01C4.294-.01 2.998 1.794 2.998 4v1H0v9h13V5H9.998z"/><path d="M6 11h1V8H6z"/></g></svg><svg width="26" height="25" viewBox="-4 -4 26 25" id="icon_share_18x17_black" x="163" y="140" xmlns="http://www.w3.org/2000/svg"><g fill-rule="evenodd"><path d="M12.15 1v2.699l-2.142.001c-3.27 0-5.51 2.765-5.84 6.486-.045.51.661.687.862.216l.009-.02c.167-.382.518-.896 1.092-1.383l.188-.153c.9-.69 2.075-1.096 3.581-1.096l2.25-.001v2.701a.45.45 0 0 0 .76.325l4.95-4.725a.448.448 0 0 0 0-.65L12.91.673a.45.45 0 0 0-.76.326zm.9 1.051 3.848 3.674-3.848 3.673V7.3a.45.45 0 0 0-.45-.45H9.9l-.338.006c-1.67.063-3 .595-4.014 1.457l-.124.109.033-.104C6.2 6.073 7.847 4.6 10.008 4.6H12.6a.45.45 0 0 0 .45-.45V2.051z"/><path d="M5 3v.903L.909 3.902v12.195h13.182v-4.065H15V17H0V3z"/></g></svg><svg width="26" height="25" viewBox="-4 -4 26 25" id="icon_share_18x17_gray" x="189" y="140" xmlns="http://www.w3.org/2000/svg"><g fill-rule="evenodd" opacity=".6"><path d="M12.15 1v2.699l-2.142.001c-3.27 0-5.51 2.765-5.84 6.486-.045.51.661.687.862.216l.009-.02c.167-.382.518-.896 1.092-1.383l.188-.153c.9-.69 2.075-1.096 3.581-1.096l2.25-.001v2.701a.45.45 0 0 0 .76.325l4.95-4.725a.448.448 0 0 0 0-.65L12.91.673a.45.45 0 0 0-.76.326zm.9 1.051 3.848 3.674-3.848 3.673V7.3a.45.45 0 0 0-.45-.45H9.9l-.338.006c-1.67.063-3 .595-4.014 1.457l-.124.109.033-.104C6.2 6.073 7.847 4.6 10.008 4.6H12.6a.45.45 0 0 0 .45-.45V2.051z"/><path d="M5 3v.903L.909 3.902v12.195h13.182v-4.065H15V17H0V3z"/></g></svg><svg width="26" height="25" viewBox="-4 -4 26 25" id="icon_share_18x17_white" x="215" y="140" xmlns="http://www.w3.org/2000/svg"><g fill="#FFF"><path d="M12.15 1v2.699l-2.142.001c-3.27 0-5.51 2.765-5.84 6.486-.045.51.661.687.862.216l.009-.02c.167-.382.518-.896 1.092-1.383l.188-.153c.9-.69 2.075-1.096 3.581-1.096l2.25-.001v2.701a.45.45 0 0 0 .76.325l4.95-4.725a.448.448 0 0 0 0-.65L12.91.673a.45.45 0 0 0-.76.326zm.9 1.051 3.848 3.674-3.848 3.673V7.3a.45.45 0 0 0-.45-.45H9.9l-.338.006c-1.67.063-3 .595-4.014 1.457l-.124.109.033-.104C6.2 6.073 7.847 4.6 10.008 4.6H12.6a.45.45 0 0 0 .45-.45V2.051z"/><path d="M5 3v.903L.909 3.902v12.195h13.182v-4.065H15V17H0V3z"/></g></svg><svg width="140" height="140" viewBox="-4 -4 140 140" id="icon_slash_mask_132x132_white" xmlns="http://www.w3.org/2000/svg"><defs><path id="bza" d="M0 0h132v132H0z"/></defs><g fill="none" fill-rule="evenodd"><mask id="bzb" fill="#fff"><use xlink:href="#bza"/></mask><path fill="#FFF" fill-rule="nonzero" d="M131.293-.707a1 1 0 0 1 1.497 1.32l-.083.094-132 132a1 1 0 0 1-1.497-1.32l.083-.094 132-132z" mask="url(#bzb)"/></g></svg><svg width="22" height="21" fill="none" viewBox="-4 -4 22 21" id="icon_video_14x13_white" x="165" y="268" xmlns="http://www.w3.org/2000/svg"><path fill-rule="evenodd" clip-rule="evenodd" d="M8.39 0H6.34l1.617 2.786h2.05L8.39 0zM5.263 0h-2.05L4.83 2.786h2.05L5.262 0zM2.136 0h-.279A1.857 1.857 0 0 0 0 1.857v.929h3.753L2.136 0zM0 3.714v7.429C0 12.168.831 13 1.857 13h10.286A1.857 1.857 0 0 0 14 11.143V3.714H0zm14-.928h-2.916L9.467 0h2.676C13.168 0 14 .831 14 1.857v.929zM5.877 5.57a.26.26 0 0 1 .14.041L9.194 7.63a.313.313 0 0 1 .138.264c0 .108-.053.21-.138.264l-3.178 2.016a.258.258 0 0 1-.278 0A.313.313 0 0 1 5.6 9.91V5.877c0-.109.053-.21.139-.265a.258.258 0 0 1 .138-.04z" fill="#fff"/></svg><svg width="18" height="18" fill="none" viewBox="-4 -4 18 18" id="icon_x_10x10_darkgray" x="236" y="69" xmlns="http://www.w3.org/2000/svg"><path fill-rule="evenodd" clip-rule="evenodd" d="M.667 0 5 4.333 9.333 0 10 .667 5.667 5 10 9.333 9.333 10 5 5.667.667 10 0 9.333 4.333 5 0 .667.667 0z" fill="#B5B5B9"/></svg><svg width="18" height="18" fill="none" viewBox="-4 -4 18 18" id="icon_x_10x10_gray" x="236" y="93" xmlns="http://www.w3.org/2000/svg"><path fill-rule="evenodd" clip-rule="evenodd" d="M.667 0 5 4.333 9.333 0 10 .667 5.667 5 10 9.333 9.333 10 5 5.667.667 10 0 9.333 4.333 5 0 .667.667 0z" fill="#BFBFBF"/></svg><svg width="19" height="19" viewBox="-4 -4 19 19" id="icon_x_11x11_black" x="206" y="268" xmlns="http://www.w3.org/2000/svg"><defs><path id="cda" d="M1976 121h460v548h-460z"/></defs><g fill="none" fill-rule="evenodd"><g transform="translate(-2395 -631)"><use fill="#FFF" xlink:href="#cda"/><path stroke="#000" stroke-width="2" d="M1977 122h458v546h-458z"/></g><path fill="#000" d="M10.433 0 5.5 4.933.567 0 0 .567 4.933 5.5 0 10.433.567 11 5.5 6.066 10.433 11l.567-.567L6.066 5.5 11 .567z"/></g></svg><svg width="20" height="20" fill="none" viewBox="-4 -4 20 20" id="icon_x_12x12_gray" x="234" y="166" xmlns="http://www.w3.org/2000/svg"><path d="m1 1 10 10M1 11 11 1" stroke="#959595"/></svg><svg width="23" height="23" viewBox="-4 -4 23 23" id="icon_x_15x15_black" y="298" xmlns="http://www.w3.org/2000/svg"><defs><path id="cfa" d="M0 0h320v299H0z"/></defs><g fill="none" fill-rule="evenodd"><g transform="translate(-290 -15)"><use fill="#FFF" xlink:href="#cfa"/><path stroke="#D7D7D7" d="M.5.5h319v298H.5z"/></g><path fill="#000" d="M14.433 0 7.5 6.933.567 0 0 .567 6.933 7.5 0 14.433.567 15 7.5 8.066 14.433 15l.567-.567L8.066 7.5 15 .567z"/></g></svg><svg width="32" height="32" fill="none" viewBox="-4 -4 32 32" id="icon_x_24x24_black" x="228" y="223" xmlns="http://www.w3.org/2000/svg"><path d="m1 1 22 22M1 23 23 1" stroke="#000"/></svg></svg>